REM DIRINDEX 1\2\6,1\2\7,1\2\8,1\2\9,1\3\10,1\3\11,1\4\12,1\4\13,1\4\14,1\5\15,1\5\16,1\5\17
REM DIRNAME folder01,folder02,folder03,folder04,folder05,folder06,folder07,folder08,folder09,folder10,folder11,folder12,folder13,folder14,folder15,folder16,folder17
TITLE ""
FILE "1900_2_sec19_1818_1836.mp3" MP3
  TRACK 01 AUDIO
    TITLE "0:"
    INDEX 01 00:00:00
  TRACK 02 AUDIO
    TITLE "13:cjc020_5797"
    INDEX 01 00:00:17
  TRACK 03 AUDIO
    TITLE "0:"
    INDEX 01 00:01:24
  TRACK 04 AUDIO
    TITLE "14:cjc020_5798"
    INDEX 01 00:01:28
  TRACK 05 AUDIO
    TITLE "0:"
    INDEX 01 00:03:64
  TRACK 06 AUDIO
    TITLE "13:cjc020_5799"
    INDEX 01 00:04:42
  TRACK 07 AUDIO
    TITLE "0:"
    INDEX 01 00:05:46
  TRACK 08 AUDIO
    TITLE "14:cjc020_5800"
    INDEX 01 00:05:52
  TRACK 09 AUDIO
    TITLE "0:"
    INDEX 01 00:06:61
  TRACK 10 AUDIO
    TITLE "13:cjc020_5801"
    INDEX 01 00:07:41
  TRACK 11 AUDIO
    TITLE "0:"
    INDEX 01 00:08:60
  TRACK 12 AUDIO
    TITLE "14:cjc020_5802"
    INDEX 01 00:08:66
  TRACK 13 AUDIO
    TITLE "0:"
    INDEX 01 00:10:68
  TRACK 14 AUDIO
    TITLE "13:cjc020_5803"
    INDEX 01 00:11:48
  TRACK 15 AUDIO
    TITLE "0:"
    INDEX 01 00:12:58
  TRACK 16 AUDIO
    TITLE "14:cjc020_5804"
    INDEX 01 00:12:60
  TRACK 17 AUDIO
    TITLE "0:"
    INDEX 01 00:15:42
  TRACK 18 AUDIO
    TITLE "13:cjc020_5805"
    INDEX 01 00:16:16
  TRACK 19 AUDIO
    TITLE "0:"
    INDEX 01 00:17:47
  TRACK 20 AUDIO
    TITLE "14:cjc020_5806"
    INDEX 01 00:17:51
  TRACK 21 AUDIO
    TITLE "0:"
    INDEX 01 00:20:20
  TRACK 22 AUDIO
    TITLE "13:cjc020_5807"
    INDEX 01 00:21:04
  TRACK 23 AUDIO
    TITLE "0:"
    INDEX 01 00:22:03
  TRACK 24 AUDIO
    TITLE "14:cjc020_5808"
    INDEX 01 00:22:07
  TRACK 25 AUDIO
    TITLE "0:"
    INDEX 01 00:26:07
  TRACK 26 AUDIO
    TITLE "13:cjc020_5809"
    INDEX 01 00:26:62
  TRACK 27 AUDIO
    TITLE "0:"
    INDEX 01 00:28:02
  TRACK 28 AUDIO
    TITLE "14:cjc020_5810"
    INDEX 01 00:28:08
  TRACK 29 AUDIO
    TITLE "0:"
    INDEX 01 00:30:55
  TRACK 30 AUDIO
    TITLE "13:cjc020_5811"
    INDEX 01 00:31:33
  TRACK 31 AUDIO
    TITLE "0:"
    INDEX 01 00:32:43
  TRACK 32 AUDIO
    TITLE "14:cjc020_5812"
    INDEX 01 00:32:47
  TRACK 33 AUDIO
    TITLE "0:"
    INDEX 01 00:35:19
  TRACK 34 AUDIO
    TITLE "13:cjc020_5813"
    INDEX 01 00:36:03
  TRACK 35 AUDIO
    TITLE "0:"
    INDEX 01 00:37:05
  TRACK 36 AUDIO
    TITLE "14:cjc020_5814"
    INDEX 01 00:37:10
  TRACK 37 AUDIO
    TITLE "0:"
    INDEX 01 00:39:17
  TRACK 38 AUDIO
    TITLE "13:cjc020_5815"
    INDEX 01 00:39:70
  TRACK 39 AUDIO
    TITLE "0:"
    INDEX 01 00:41:04
  TRACK 40 AUDIO
    TITLE "14:cjc020_5816"
    INDEX 01 00:41:06
  TRACK 41 AUDIO
    TITLE "0:"
    INDEX 01 00:44:34
  TRACK 42 AUDIO
    TITLE "13:cjc020_5817"
    INDEX 01 00:45:14
  TRACK 43 AUDIO
    TITLE "0:"
    INDEX 01 00:46:27
  TRACK 44 AUDIO
    TITLE "14:cjc020_5818"
    INDEX 01 00:46:31
  TRACK 45 AUDIO
    TITLE "0:"
    INDEX 01 00:48:69
  TRACK 46 AUDIO
    TITLE "13:cjc020_5819"
    INDEX 01 00:49:51
  TRACK 47 AUDIO
    TITLE "0:"
    INDEX 01 00:50:54
  TRACK 48 AUDIO
    TITLE "14:cjc020_5820"
    INDEX 01 00:50:56
  TRACK 49 AUDIO
    TITLE "0:"
    INDEX 01 00:52:00
  TRACK 50 AUDIO
    TITLE "13:cjc020_5821"
    INDEX 01 00:52:53
  TRACK 51 AUDIO
    TITLE "0:"
    INDEX 01 00:53:70
  TRACK 52 AUDIO
    TITLE "14:cjc020_5822"
    INDEX 01 00:53:72
  TRACK 53 AUDIO
    TITLE "0:"
    INDEX 01 00:55:26
  TRACK 54 AUDIO
    TITLE "13:cjc020_5823"
    INDEX 01 00:56:10
  TRACK 55 AUDIO
    TITLE "0:"
    INDEX 01 00:57:21
  TRACK 56 AUDIO
    TITLE "14:cjc020_5824"
    INDEX 01 00:57:25
  TRACK 57 AUDIO
    TITLE "0:"
    INDEX 01 00:59:69
  TRACK 58 AUDIO
    TITLE "13:cjc020_5825"
    INDEX 01 01:00:49
  TRACK 59 AUDIO
    TITLE "0:"
    INDEX 01 01:01:58
  TRACK 60 AUDIO
    TITLE "14:cjc020_5826"
    INDEX 01 01:01:60
  TRACK 61 AUDIO
    TITLE "0:"
    INDEX 01 01:03:12
  TRACK 62 AUDIO
    TITLE "13:cjc020_5827"
    INDEX 01 01:03:69
  TRACK 63 AUDIO
    TITLE "0:"
    INDEX 01 01:05:03
  TRACK 64 AUDIO
    TITLE "14:cjc020_5828"
    INDEX 01 01:05:07
  TRACK 65 AUDIO
    TITLE "0:"
    INDEX 01 01:07:72
  TRACK 66 AUDIO
    TITLE "13:cjc020_5829"
    INDEX 01 01:08:50
  TRACK 67 AUDIO
    TITLE "0:"
    INDEX 01 01:09:71
  TRACK 68 AUDIO
    TITLE "14:cjc020_5830"
    INDEX 01 01:09:73
  TRACK 69 AUDIO
    TITLE "0:"
    INDEX 01 01:11:25
  TRACK 70 AUDIO
    TITLE "13:cjc020_5831"
    INDEX 01 01:12:05
  TRACK 71 AUDIO
    TITLE "0:"
    INDEX 01 01:13:14
  TRACK 72 AUDIO
    TITLE "14:cjc020_5832"
    INDEX 01 01:13:16
  TRACK 73 AUDIO
    TITLE "0:"
    INDEX 01 01:15:44
  TRACK 74 AUDIO
    TITLE "12:cjc020_5833"
    INDEX 01 01:17:20
  TRACK 75 AUDIO
    TITLE "0:"
    INDEX 01 01:18:43
  TRACK 76 AUDIO
    TITLE "13:cjc020_5834"
    INDEX 01 01:19:44
  TRACK 77 AUDIO
    TITLE "0:"
    INDEX 01 01:20:57
  TRACK 78 AUDIO
    TITLE "14:cjc020_5835"
    INDEX 01 01:20:61
  TRACK 79 AUDIO
    TITLE "0:"
    INDEX 01 01:22:68
